<svg width="176" height="51" viewBox="0 0 176 51" fill="none" xmlns="http://www.w3.org/2000/svg">
<g clip-path="url(#clip0_1_26922)">
<path d="M16 16C29.3333 16 32 18.6667 32 32C32 45.3333 29.3333 48 16 48C2.66667 48 0 45.3333 0 32C0 18.6667 2.66667 16 16 16Z" fill="url(#paint0_linear_1_26922)"/>
<path fill-rule="evenodd" clip-rule="evenodd" d="M15.9998 24.3476C18.4921 24.3476 18.787 24.3573 19.7714 24.4021C20.6812 24.4435 21.1754 24.5955 21.5044 24.7233C21.9402 24.8926 22.251 25.0949 22.5777 25.4213C22.9045 25.748 23.1068 26.0589 23.2757 26.4945C23.4035 26.8235 23.5554 27.3177 23.5969 28.2277C23.6418 29.2117 23.6514 29.5069 23.6514 31.9991C23.6514 34.4914 23.6418 34.7863 23.5969 35.7707C23.5554 36.6805 23.4035 37.1747 23.2757 37.5037C23.1064 37.9395 22.9041 38.2503 22.5777 38.577C22.251 38.9038 21.9402 39.1061 21.5044 39.275C21.1754 39.4028 20.6812 39.5548 19.7714 39.5962C18.7874 39.6411 18.4921 39.6507 15.9998 39.6507C13.5076 39.6507 13.2124 39.6411 12.2284 39.5962C11.3184 39.5548 10.8242 39.4028 10.4952 39.275C10.0596 39.1058 9.74869 38.9034 9.42195 38.577C9.09522 38.2503 8.89289 37.9395 8.72395 37.5037C8.59615 37.1747 8.44422 36.6805 8.40275 35.7707C8.35795 34.7867 8.34829 34.4914 8.34829 31.9991C8.34829 29.5069 8.35795 29.212 8.40275 28.2277C8.44422 27.3177 8.59615 26.8235 8.72395 26.4945C8.89329 26.0589 9.09555 25.748 9.42195 25.4213C9.74869 25.0945 10.0596 24.8922 10.4952 24.7233C10.8242 24.5955 11.3184 24.4435 12.2284 24.4021C13.2127 24.3573 13.5076 24.3476 15.9998 24.3476ZM15.9998 22.666C13.465 22.666 13.1472 22.6767 12.1516 22.7223C11.1584 22.7675 10.48 22.9253 9.88615 23.1561C9.27229 23.3947 8.75175 23.7137 8.23309 24.2327C7.71442 24.7515 7.39502 25.2719 7.15682 25.8855C6.92602 26.4793 6.76822 27.1577 6.72302 28.1509C6.67742 29.1465 6.66669 29.4643 6.66669 31.9991C6.66669 34.534 6.67742 34.8519 6.72302 35.8473C6.76822 36.8406 6.92602 37.5189 7.15682 38.1128C7.39542 38.7267 7.71442 39.2472 8.23342 39.7659C8.75249 40.2849 9.27262 40.604 9.88655 40.8426C10.48 41.0734 11.1588 41.2311 12.152 41.2764C13.1475 41.3219 13.4654 41.3327 16.0002 41.3327C18.535 41.3327 18.8529 41.3219 19.8484 41.2764C20.8416 41.2311 21.5204 41.0734 22.1139 40.8426C22.7278 40.604 23.2483 40.2849 23.767 39.7659C24.286 39.2469 24.605 38.7267 24.8436 38.1128C25.0744 37.5194 25.2322 36.8406 25.2774 35.8473C25.323 34.8519 25.3338 34.534 25.3338 31.9991C25.3338 29.4643 25.323 29.1465 25.2774 28.1509C25.2322 27.1577 25.0744 26.479 24.8436 25.8855C24.605 25.2716 24.286 24.7511 23.767 24.2324C23.2479 23.7133 22.7278 23.3943 22.1139 23.1558C21.5196 22.9253 20.8413 22.7675 19.848 22.7223C18.8526 22.6767 18.5347 22.666 15.9998 22.666ZM15.9998 27.2066C13.3528 27.2066 11.2073 29.3525 11.2073 31.9991C11.2073 34.6459 13.3532 36.7917 15.9998 36.7917C18.6466 36.7917 20.7924 34.6459 20.7924 31.9991C20.7924 29.3525 18.6469 27.2066 15.9998 27.2066ZM15.9998 35.1101C14.2816 35.1101 12.8889 33.7171 12.8889 31.9991C12.8889 30.2809 14.2819 28.8882 15.9998 28.8882C17.7178 28.8882 19.1108 30.2812 19.1108 31.9991C19.1108 33.7175 17.7182 35.1101 15.9998 35.1101ZM22.102 27.0169C22.102 27.6355 21.6006 28.1369 20.9821 28.1369C20.3636 28.1369 19.8621 27.6355 19.8621 27.0169C19.8621 26.3984 20.3636 25.8969 20.9821 25.8969C21.6006 25.8969 22.102 26.3984 22.102 27.0169Z" fill="white"/>
</g>
<g clip-path="url(#clip1_1_26922)">
<path d="M60 16C73.3333 16 76 18.6667 76 32C76 45.3333 73.3333 48 60 48C46.6667 48 44 45.3333 44 32C44 18.6667 46.6667 16 60 16Z" fill="url(#paint1_linear_1_26922)"/>
<path d="M51.8612 31.8652C56.5255 29.8331 59.6358 28.4933 61.192 27.846C65.6354 25.9979 66.5587 25.6769 67.1605 25.6661C67.2929 25.6639 67.5888 25.6967 67.7805 25.8523C67.9423 25.9836 67.9869 26.161 68.0082 26.2856C68.0295 26.4101 68.0561 26.6938 68.035 26.9154C67.7942 29.4454 66.7523 35.585 66.2223 38.4186C65.998 39.6176 65.5563 40.0196 65.1288 40.059C64.1996 40.1445 63.4941 39.445 62.5942 38.8551C61.186 37.9319 60.3904 37.3573 59.0235 36.4565C57.4438 35.4156 58.4679 34.8434 59.3681 33.9083C59.6037 33.6636 63.6976 29.9399 63.7768 29.6021C63.7867 29.5599 63.7959 29.4024 63.7023 29.3193C63.6088 29.2362 63.4707 29.2646 63.3711 29.2871C63.2298 29.3192 60.9802 30.8061 56.6222 33.7479C55.9836 34.1864 55.4052 34.4001 54.8871 34.3889C54.3158 34.3765 53.2169 34.0658 52.3999 33.8003C51.3979 33.4746 50.6015 33.3024 50.6709 32.7492C50.707 32.4611 51.1038 32.1664 51.8612 31.8652Z" fill="white"/>
</g>
<g clip-path="url(#clip2_1_26922)">
<path d="M104 16C117.333 16 120 18.6667 120 32C120 45.3333 117.333 48 104 48C90.6667 48 88 45.3333 88 32C88 18.6667 90.6667 16 104 16Z" fill="#FF0000"/>
<path d="M100 37.3327L110 31.9993L100 26.666V37.3327Z" fill="white"/>
</g>
<g clip-path="url(#clip3_1_26922)">
<path d="M164 43.5556C164 46.0444 162.044 48 159.556 48H136.444C133.956 48 132 46.0444 132 43.5556V20.4444C132 17.9556 133.956 16 136.444 16H159.556C162.044 16 164 17.9556 164 20.4444V43.5556Z" fill="#3B5998"/>
<path d="M157.244 32.8893H154.222V44.4449H149.778V32.8893H147.111V29.3338H149.778V27.2004C149.778 24.0893 151.111 22.2227 154.756 22.2227H157.778V25.7782H155.733C154.311 25.7782 154.222 26.3115 154.222 27.2893V29.3338H157.778L157.244 32.8893Z" fill="white"/>
</g>
<defs>
<linearGradient id="paint0_linear_1_26922" x1="28.5403" y1="19.7709" x2="3.36279" y2="44.3236" gradientUnits="userSpaceOnUse">
<stop stop-color="#BA00B2"/>
<stop offset="0.5" stop-color="#F40000"/>
<stop offset="1" stop-color="#FFA800"/>
</linearGradient>
<linearGradient id="paint1_linear_1_26922" x1="60" y1="16" x2="60" y2="47.7625" gradientUnits="userSpaceOnUse">
<stop stop-color="#2AABEE"/>
<stop offset="1" stop-color="#229ED9"/>
</linearGradient>
<clipPath id="clip0_1_26922">
<rect width="32" height="32" fill="white" transform="translate(0 16)"/>
</clipPath>
<clipPath id="clip1_1_26922">
<rect width="32" height="32" fill="white" transform="translate(44 16)"/>
</clipPath>
<clipPath id="clip2_1_26922">
<rect width="32" height="32" fill="white" transform="translate(88 16)"/>
</clipPath>
<clipPath id="clip3_1_26922">
<rect width="32" height="32" fill="white" transform="translate(132 16)"/>
</clipPath>
</defs>
</svg>
