<svg width="102" height="24" viewBox="0 0 102 24" fill="none" xmlns="http://www.w3.org/2000/svg">
<path d="M20.9046 11.0544L16.7578 8.69727L13.455 12.0001L16.7578 15.303L20.9046 12.9459C21.6393 12.5311 21.6393 11.469 20.9046 11.0544Z" fill="url(#paint0_linear_1_26911)"/>
<path d="M13.455 11.9997L3.59012 2.13477C3.3937 2.33119 3.27002 2.59309 3.27002 2.90591V21.0934C3.27002 21.4063 3.3937 21.6755 3.59012 21.8646L13.455 11.9997Z" fill="url(#paint1_linear_1_26911)"/>
<path d="M16.7578 8.69733L4.89953 1.96068C4.4412 1.69877 3.91741 1.81517 3.59003 2.13527L13.455 12.0002L16.7578 8.69733Z" fill="url(#paint2_linear_1_26911)"/>
<path d="M13.455 12L3.59003 21.8649C3.91741 22.1922 4.4412 22.3014 4.89953 22.0395L16.7578 15.3028L13.455 12Z" fill="url(#paint3_linear_1_26911)"/>
<path d="M36.3227 9.95604C36.2348 9.68028 36.1167 9.43331 35.9682 9.21513C35.8227 8.99392 35.6485 8.80604 35.4455 8.65149C35.2424 8.49392 35.0106 8.37422 34.75 8.2924C34.4924 8.21058 34.2091 8.16967 33.9 8.16967C33.3758 8.16967 32.903 8.30452 32.4818 8.57422C32.0606 8.84392 31.7273 9.23937 31.4818 9.76058C31.2394 10.2788 31.1182 10.9136 31.1182 11.6651C31.1182 12.4197 31.2409 13.0576 31.4864 13.5788C31.7318 14.1 32.0682 14.4954 32.4955 14.7651C32.9227 15.0348 33.4091 15.1697 33.9545 15.1697C34.4606 15.1697 34.9015 15.0666 35.2773 14.8606C35.6561 14.6545 35.9485 14.3636 36.1545 13.9879C36.3636 13.6091 36.4682 13.1636 36.4682 12.6515L36.8318 12.7197H34.1682V11.5606H37.8273V12.6197C37.8273 13.4015 37.6606 14.0803 37.3273 14.656C36.997 15.2288 36.5394 15.6712 35.9545 15.9833C35.3727 16.2954 34.7061 16.4515 33.9545 16.4515C33.1121 16.4515 32.3727 16.2576 31.7364 15.8697C31.103 15.4818 30.6091 14.9318 30.2545 14.2197C29.9 13.5045 29.7227 12.656 29.7227 11.6742C29.7227 10.9318 29.8258 10.2651 30.0318 9.67422C30.2379 9.08331 30.5273 8.58179 30.9 8.16967C31.2758 7.75452 31.7167 7.43785 32.2227 7.21967C32.7318 6.99846 33.2879 6.88785 33.8909 6.88785C34.3939 6.88785 34.8621 6.9621 35.2955 7.11058C35.7318 7.25907 36.1197 7.46967 36.4591 7.7424C36.8015 8.01513 37.0848 8.33937 37.3091 8.71513C37.5333 9.08785 37.6848 9.50149 37.7636 9.95604H36.3227ZM42.442 16.4651C41.7875 16.4651 41.2163 16.3151 40.7284 16.0151C40.2405 15.7151 39.8617 15.2954 39.592 14.756C39.3223 14.2166 39.1875 13.5863 39.1875 12.8651C39.1875 12.1409 39.3223 11.5076 39.592 10.9651C39.8617 10.4227 40.2405 10.0015 40.7284 9.70149C41.2163 9.40149 41.7875 9.25149 42.442 9.25149C43.0966 9.25149 43.6678 9.40149 44.1557 9.70149C44.6436 10.0015 45.0223 10.4227 45.292 10.9651C45.5617 11.5076 45.6966 12.1409 45.6966 12.8651C45.6966 13.5863 45.5617 14.2166 45.292 14.756C45.0223 15.2954 44.6436 15.7151 44.1557 16.0151C43.6678 16.3151 43.0966 16.4651 42.442 16.4651ZM42.4466 15.3242C42.8708 15.3242 43.2223 15.2121 43.5011 14.9879C43.7799 14.7636 43.986 14.4651 44.1193 14.0924C44.2557 13.7197 44.3239 13.3091 44.3239 12.8606C44.3239 12.4151 44.2557 12.006 44.1193 11.6333C43.986 11.2576 43.7799 10.956 43.5011 10.7288C43.2223 10.5015 42.8708 10.3879 42.4466 10.3879C42.0193 10.3879 41.6648 10.5015 41.383 10.7288C41.1042 10.956 40.8966 11.2576 40.7602 11.6333C40.6269 12.006 40.5602 12.4151 40.5602 12.8606C40.5602 13.3091 40.6269 13.7197 40.7602 14.0924C40.8966 14.4651 41.1042 14.7636 41.383 14.9879C41.6648 15.2121 42.0193 15.3242 42.4466 15.3242ZM50.1545 16.4651C49.5 16.4651 48.9288 16.3151 48.4409 16.0151C47.953 15.7151 47.5742 15.2954 47.3045 14.756C47.0348 14.2166 46.9 13.5863 46.9 12.8651C46.9 12.1409 47.0348 11.5076 47.3045 10.9651C47.5742 10.4227 47.953 10.0015 48.4409 9.70149C48.9288 9.40149 49.5 9.25149 50.1545 9.25149C50.8091 9.25149 51.3803 9.40149 51.8682 9.70149C52.3561 10.0015 52.7348 10.4227 53.0045 10.9651C53.2742 11.5076 53.4091 12.1409 53.4091 12.8651C53.4091 13.5863 53.2742 14.2166 53.0045 14.756C52.7348 15.2954 52.3561 15.7151 51.8682 16.0151C51.3803 16.3151 50.8091 16.4651 50.1545 16.4651ZM50.1591 15.3242C50.5833 15.3242 50.9348 15.2121 51.2136 14.9879C51.4924 14.7636 51.6985 14.4651 51.8318 14.0924C51.9682 13.7197 52.0364 13.3091 52.0364 12.8606C52.0364 12.4151 51.9682 12.006 51.8318 11.6333C51.6985 11.2576 51.4924 10.956 51.2136 10.7288C50.9348 10.5015 50.5833 10.3879 50.1591 10.3879C49.7318 10.3879 49.3773 10.5015 49.0955 10.7288C48.8167 10.956 48.6091 11.2576 48.4727 11.6333C48.3394 12.006 48.2727 12.4151 48.2727 12.8606C48.2727 13.3091 48.3394 13.7197 48.4727 14.0924C48.6091 14.4651 48.8167 14.7636 49.0955 14.9879C49.3773 15.2121 49.7318 15.3242 50.1591 15.3242ZM57.8534 19.0879C57.2989 19.0879 56.8216 19.0151 56.4216 18.8697C56.0246 18.7242 55.7004 18.5318 55.4489 18.2924C55.1973 18.053 55.0095 17.7909 54.8852 17.506L56.0534 17.0242C56.1352 17.1576 56.2443 17.2985 56.3807 17.4469C56.5201 17.5985 56.708 17.7272 56.9443 17.8333C57.1837 17.9394 57.4913 17.9924 57.867 17.9924C58.3822 17.9924 58.808 17.8666 59.1443 17.6151C59.4807 17.3666 59.6489 16.9697 59.6489 16.4242V15.0515H59.5625C59.4807 15.2 59.3625 15.3651 59.208 15.5469C59.0564 15.7288 58.8473 15.8863 58.5807 16.0197C58.314 16.153 57.967 16.2197 57.5398 16.2197C56.9883 16.2197 56.4913 16.0909 56.0489 15.8333C55.6095 15.5727 55.261 15.1894 55.0034 14.6833C54.7489 14.1742 54.6216 13.5485 54.6216 12.806C54.6216 12.0636 54.7473 11.4272 54.9989 10.8969C55.2534 10.3666 55.6019 9.96058 56.0443 9.67876C56.4867 9.39392 56.9883 9.25149 57.5489 9.25149C57.9822 9.25149 58.3322 9.32422 58.5989 9.46967C58.8655 9.6121 59.0731 9.77876 59.2216 9.96967C59.3731 10.1606 59.4898 10.3288 59.5716 10.4742H59.6716V9.3424H61.0034V16.4788C61.0034 17.0788 60.864 17.5712 60.5852 17.956C60.3064 18.3409 59.9292 18.6257 59.4534 18.8106C58.9807 18.9954 58.4473 19.0879 57.8534 19.0879ZM57.8398 15.0924C58.2307 15.0924 58.561 15.0015 58.8307 14.8197C59.1034 14.6348 59.3095 14.3712 59.4489 14.0288C59.5913 13.6833 59.6625 13.2697 59.6625 12.7879C59.6625 12.3182 59.5928 11.9045 59.4534 11.5469C59.314 11.1894 59.1095 10.9106 58.8398 10.7106C58.5701 10.5076 58.2367 10.406 57.8398 10.406C57.4307 10.406 57.0898 10.5121 56.817 10.7242C56.5443 10.9333 56.3383 11.2182 56.1989 11.5788C56.0625 11.9394 55.9943 12.3424 55.9943 12.7879C55.9943 13.2454 56.064 13.6469 56.2034 13.9924C56.3428 14.3379 56.5489 14.6076 56.8216 14.8015C57.0973 14.9954 57.4367 15.0924 57.8398 15.0924ZM64.1852 7.01513V16.3242H62.8261V7.01513H64.1852ZM69.0227 16.4651C68.3349 16.4651 67.7424 16.3182 67.2455 16.0242C66.7515 15.7272 66.3697 15.3106 66.1 14.7742C65.8333 14.2348 65.7 13.603 65.7 12.8788C65.7 12.1636 65.8333 11.5333 66.1 10.9879C66.3697 10.4424 66.7455 10.0166 67.2273 9.71058C67.7121 9.40452 68.2788 9.25149 68.9273 9.25149C69.3212 9.25149 69.703 9.31664 70.0727 9.44695C70.4424 9.57725 70.7742 9.78179 71.0682 10.0606C71.3621 10.3394 71.5939 10.7015 71.7636 11.1469C71.9333 11.5894 72.0182 12.1272 72.0182 12.7606V13.2424H66.4682V12.2242H70.6864C70.6864 11.8666 70.6136 11.55 70.4682 11.2742C70.3227 10.9954 70.1182 10.7757 69.8545 10.6151C69.5939 10.4545 69.2879 10.3742 68.9364 10.3742C68.5545 10.3742 68.2212 10.4682 67.9364 10.656C67.6545 10.8409 67.4364 11.0833 67.2818 11.3833C67.1303 11.6803 67.0545 12.003 67.0545 12.3515V13.1469C67.0545 13.6136 67.1364 14.0106 67.3 14.3379C67.4667 14.6651 67.6985 14.9151 67.9955 15.0879C68.2924 15.2576 68.6394 15.3424 69.0364 15.3424C69.2939 15.3424 69.5288 15.306 69.7409 15.2333C69.953 15.1576 70.1364 15.0454 70.2909 14.8969C70.4455 14.7485 70.5636 14.5651 70.6455 14.3469L71.9318 14.5788C71.8288 14.9576 71.6439 15.2894 71.3773 15.5742C71.1136 15.856 70.7818 16.0757 70.3818 16.2333C69.9849 16.3879 69.5318 16.4651 69.0227 16.4651ZM77.0227 16.3242V7.01513H80.3409C81.0652 7.01513 81.6652 7.14695 82.1409 7.41058C82.6167 7.67422 82.9727 8.03482 83.2091 8.4924C83.4455 8.94695 83.5636 9.45907 83.5636 10.0288C83.5636 10.6015 83.4439 11.1166 83.2045 11.5742C82.9682 12.0288 82.6106 12.3894 82.1318 12.656C81.6561 12.9197 81.0576 13.0515 80.3364 13.0515H78.0545V11.8606H80.2091C80.6667 11.8606 81.0379 11.7818 81.3227 11.6242C81.6076 11.4636 81.8167 11.2454 81.95 10.9697C82.0833 10.6939 82.15 10.3803 82.15 10.0288C82.15 9.67725 82.0833 9.36513 81.95 9.0924C81.8167 8.81967 81.6061 8.60604 81.3182 8.45149C81.0333 8.29695 80.6576 8.21967 80.1909 8.21967H78.4273V16.3242H77.0227ZM86.4602 7.01513V16.3242H85.1011V7.01513H86.4602ZM90.3205 16.4788C89.878 16.4788 89.478 16.3969 89.1205 16.2333C88.7629 16.0666 88.4795 15.8257 88.2705 15.5106C88.0644 15.1954 87.9614 14.8091 87.9614 14.3515C87.9614 13.9576 88.0371 13.6333 88.1886 13.3788C88.3402 13.1242 88.5447 12.9227 88.8023 12.7742C89.0598 12.6257 89.3477 12.5136 89.6659 12.4379C89.9841 12.3621 90.3083 12.3045 90.6386 12.2651C91.0568 12.2166 91.3962 12.1772 91.6568 12.1469C91.9174 12.1136 92.1068 12.0606 92.225 11.9879C92.3432 11.9151 92.4023 11.7969 92.4023 11.6333V11.6015C92.4023 11.2045 92.2902 10.8969 92.0659 10.6788C91.8447 10.4606 91.5144 10.3515 91.075 10.3515C90.6174 10.3515 90.2568 10.453 89.9932 10.656C89.7326 10.856 89.5523 11.0788 89.4523 11.3242L88.175 11.0333C88.3265 10.6091 88.5477 10.2666 88.8386 10.006C89.1326 9.7424 89.4705 9.55149 89.8523 9.43331C90.2341 9.3121 90.6356 9.25149 91.0568 9.25149C91.3356 9.25149 91.6311 9.28482 91.9432 9.35149C92.2583 9.41513 92.5523 9.53331 92.825 9.70604C93.1008 9.87876 93.3265 10.1257 93.5023 10.4469C93.678 10.7651 93.7659 11.1788 93.7659 11.6879V16.3242H92.4386V15.3697H92.3841C92.2962 15.5454 92.1644 15.7182 91.9886 15.8879C91.8129 16.0576 91.5871 16.1985 91.3114 16.3106C91.0356 16.4227 90.7053 16.4788 90.3205 16.4788ZM90.6159 15.3879C90.9917 15.3879 91.3129 15.3136 91.5795 15.1651C91.8492 15.0166 92.0538 14.8227 92.1932 14.5833C92.3356 14.3409 92.4068 14.0818 92.4068 13.806V12.906C92.3583 12.9545 92.2644 13 92.125 13.0424C91.9886 13.0818 91.8326 13.1166 91.6568 13.1469C91.4811 13.1742 91.3098 13.2 91.1432 13.2242C90.9765 13.2454 90.8371 13.2636 90.725 13.2788C90.4614 13.3121 90.2205 13.3682 90.0023 13.4469C89.7871 13.5257 89.6144 13.6394 89.4841 13.7879C89.3568 13.9333 89.2932 14.1272 89.2932 14.3697C89.2932 14.706 89.4174 14.9606 89.6659 15.1333C89.9144 15.303 90.2311 15.3879 90.6159 15.3879ZM96.1852 18.9424C95.9822 18.9424 95.7973 18.9257 95.6307 18.8924C95.464 18.8621 95.3398 18.8288 95.258 18.7924L95.5852 17.6788C95.8337 17.7454 96.0549 17.7742 96.2489 17.7651C96.4428 17.756 96.614 17.6833 96.7625 17.5469C96.914 17.4106 97.0473 17.1879 97.1625 16.8788L97.3307 16.4151L94.7761 9.3424H96.2307L97.9989 14.7606H98.0716L99.8398 9.3424H101.299L98.4216 17.256C98.2883 17.6197 98.1186 17.9272 97.9125 18.1788C97.7064 18.4333 97.461 18.6242 97.1761 18.7515C96.8913 18.8788 96.561 18.9424 96.1852 18.9424Z" fill="#1F2026"/>
<defs>
<linearGradient id="paint0_linear_1_26911" x1="13.455" y1="12.0001" x2="21.4575" y2="12.0001" gradientUnits="userSpaceOnUse">
<stop stop-color="#FFBD00"/>
<stop offset="1" stop-color="#FFE000"/>
</linearGradient>
<linearGradient id="paint1_linear_1_26911" x1="13.455" y1="11.9997" x2="3.27002" y2="22.1846" gradientUnits="userSpaceOnUse">
<stop stop-color="#00BEFF"/>
<stop offset="1" stop-color="#00E3FF"/>
</linearGradient>
<linearGradient id="paint2_linear_1_26911" x1="3.26997" y1="1.81516" x2="13.455" y2="12.0001" gradientUnits="userSpaceOnUse">
<stop stop-color="#15CF74"/>
<stop offset="1" stop-color="#00F076"/>
</linearGradient>
<linearGradient id="paint3_linear_1_26911" x1="13.455" y1="12" x2="3.26997" y2="22.1849" gradientUnits="userSpaceOnUse">
<stop stop-color="#FF3A44"/>
<stop offset="1" stop-color="#E12653"/>
</linearGradient>
</defs>
</svg>
